<?xml version="1.0" encoding="UTF-8" standalone="no"?>
<svg width="1024px" height="1024px" viewBox="0 0 1024 1024" version="1.1" xmlns="http://www.w3.org/2000/svg" xmlns:xlink="http://www.w3.org/1999/xlink" xmlns:sketch="http://www.bohemiancoding.com/sketch/ns">
    <!-- Generator: Sketch 3.3.3 (12072) - http://www.bohemiancoding.com/sketch -->
    <title>favicon.svg</title>
    <desc>Created with Sketch.</desc>
    <defs></defs>
    <g id="Favicons" stroke="none" stroke-width="1" fill="none" fill-rule="evenodd" sketch:type="MSPage">
        <g id="favicon.svg" sketch:type="MSArtboardGroup" fill="#036E9F">
            <path d="M0,0 L1024,0 L1024,1024 L0,1024 L0,0 Z M310.189781,872.288814 C390.8349,872.288814 456.210686,806.897834 456.210686,726.233971 C456.210686,645.570109 390.8349,580.179128 310.189781,580.179128 C229.544662,580.179128 164.168876,645.570109 164.168876,726.233971 C164.168876,806.897834 229.544662,872.288814 310.189781,872.288814 Z M713.810219,872.288814 C794.455338,872.288814 859.831124,806.897834 859.831124,726.233971 C859.831124,645.570109 794.455338,580.179128 713.810219,580.179128 C633.1651,580.179128 567.789314,645.570109 567.789314,726.233971 C567.789314,806.897834 633.1651,872.288814 713.810219,872.288814 Z M713.810219,458.466759 C797.815552,458.466759 865.915328,390.351154 865.915328,306.326297 C865.915328,222.30144 797.815552,154.185835 713.810219,154.185835 C629.804886,154.185835 561.705109,222.30144 561.705109,306.326297 C561.705109,390.351154 629.804886,458.466759 713.810219,458.466759 Z M310.189781,458.466759 C394.195114,458.466759 462.294891,390.351154 462.294891,306.326297 C462.294891,222.30144 394.195114,154.185835 310.189781,154.185835 C226.184451,154.185835 158.084672,222.30144 158.084672,306.326297 C158.084672,390.351154 226.184451,458.466759 310.189781,458.466759 Z M713.810219,416.335555 C653.067903,416.335555 603.826524,367.082732 603.826524,306.326297 C603.826524,245.569862 653.067903,196.31704 713.810219,196.31704 C774.552535,196.31704 823.793914,245.569862 823.793914,306.326297 C823.793914,367.082732 774.552535,416.335555 713.810219,416.335555 Z M310.189781,416.335555 C249.447465,416.335555 200.206088,367.082732 200.206088,306.326297 C200.206088,245.569862 249.447465,196.31704 310.189781,196.31704 C370.9321,196.31704 420.173476,245.569862 420.173476,306.326297 C420.173476,367.082732 370.9321,416.335555 310.189781,416.335555 Z" id="Rectangle-7" sketch:type="MSShapeGroup"></path>
        </g>
    </g>
</svg>