<svg viewBox="0 0 1024 615" version="1.1" xmlns="http://www.w3.org/2000/svg" xmlns:xlink="http://www.w3.org/1999/xlink">
    <g stroke="none" stroke-width="1" fill="none" fill-rule="evenodd">
        <g fill="#036E9F">
            <ellipse cx="558" cy="222.324324" rx="39.072" ry="39.0810811"></ellipse>
            <ellipse cx="666" cy="222.324324" rx="39.072" ry="39.0810811"></ellipse>
            <path d="M666,150.675676 C688.477989,150.675676 706.7,132.44943 706.7,109.966216 C706.7,87.4830026 688.477989,69.2567568 666,69.2567568 C643.522011,69.2567568 625.3,87.4830026 625.3,109.966216 C625.3,132.44943 643.522011,150.675676 666,150.675676 L666,150.675676 L666,150.675676 Z M666,139.402287 C649.746685,139.402287 636.570769,126.223309 636.570769,109.966216 C636.570769,93.7091233 649.746685,80.5301455 666,80.5301455 C682.253315,80.5301455 695.429231,93.7091233 695.429231,109.966216 C695.429231,126.223309 682.253315,139.402287 666,139.402287 L666,139.402287 L666,139.402287 Z"></path>
            <path d="M558,150.675676 C580.477989,150.675676 598.7,132.44943 598.7,109.966216 C598.7,87.4830026 580.477989,69.2567568 558,69.2567568 C535.522011,69.2567568 517.3,87.4830026 517.3,109.966216 C517.3,132.44943 535.522011,150.675676 558,150.675676 L558,150.675676 L558,150.675676 Z M558,139.402287 C541.746685,139.402287 528.57077,126.223309 528.57077,109.966216 C528.57077,93.7091233 541.746685,80.5301455 558,80.5301455 C574.253316,80.5301455 587.429231,93.7091233 587.429231,109.966216 C587.429231,126.223309 574.253316,139.402287 558,139.402287 L558,139.402287 L558,139.402287 Z"></path>
            <path d="M232.7,476.9 C232.7,449.93 220.3,431.95 200.15,413.97 C187.13,402.5 176.59,394.44 171.01,388.55 C165.12,382.66 161.71,377.39 161.71,369.33 C161.71,356.31 172.87,348.25 189.3,348.25 C196.12,348.25 201.08,349.18 205.73,350.73 C209.76,352.28 214.72,355.07 217.2,357.86 L219.37,357.86 C219.99,331.51 219.99,322.83 220.92,303.3 C211.93,300.51 196.43,298.65 184.65,298.65 C127.3,298.65 101.57,332.75 101.57,370.26 C101.57,396.3 114.59,415.52 131.02,430.09 C137.84,436.29 146.21,443.73 154.89,450.55 C164.81,458.61 170.7,466.05 170.7,474.73 C170.7,488.99 159.85,495.81 144.35,495.81 C133.81,495.81 124.51,494.26 117.07,491.16 C112.42,488.99 108.08,486.2 104.36,482.17 L102.5,482.17 C101.57,510.07 101.26,519.06 100.64,537.04 C112.42,542.31 132.57,545.72 150.55,545.72 C198.6,545.72 232.7,517.82 232.7,477.21 L232.7,476.9 Z M479.15,401.57 C479.15,317.25 479.379703,303.72 483.099703,301.86 L483.099703,300 L454.269703,300 L422.029703,300 L422.029703,301.86 C426.369703,303.72 426.14,317.25 426.14,396.3 C426.14,405.91 426.45,416.14 426.76,431.64 L425.83,431.64 C409.4,414.59 395.76,401.57 381.5,388.24 C360.73,369.02 330.04,342.05 278.27,298.03 L270.52,298.03 L270.52,434.43 C270.52,524.95 270.52,538.28 266.49,540.14 L266.49,542 L295.63,542 L327.56,542 L327.56,540.14 C323.53,537.97 323.53,524.95 323.53,440.94 C323.53,433.5 323.53,425.44 322.91,412.73 C342.75,432.26 354.84,443.73 370.34,457.68 C391.11,476.59 421.49,502.94 471.4,545.1 L479.15,545.1 L479.15,401.57 Z M586.41,401.57 C586.41,317.25 586.763968,306.2 590.483968,302.17 L590.483968,300 L557.623968,300 L524.763968,300 L524.763968,302.48 C528.793968,306.2 528.75,317.25 528.75,401.57 L528.75,434.43 C528.75,524.95 528.75,535.49 524.41,539.83 L524.41,542 L558.82,542 L591.06,542 L591.06,540.14 C586.41,535.18 586.41,524.95 586.41,434.43 L586.41,401.57 Z M694.6,401.57 C694.6,317.25 694.972423,306.2 698.692423,302.17 L698.692423,300 L665.832423,300 L632.972423,300 L632.972423,302.48 C637.002423,306.2 636.94,317.25 636.94,401.57 L636.94,434.43 C636.94,524.95 636.94,535.49 632.6,539.83 L632.6,542 L667.01,542 L699.25,542 L699.25,540.14 C694.6,535.18 694.6,524.95 694.6,434.43 L694.6,401.57 Z M728.7,420.79 C728.7,497.36 785.74,545.72 862.62,545.72 C873.16,545.72 881.22,545.41 893.31,543.86 C900.13,542.62 909.43,540.76 913.77,539.52 C913.46,527.43 912.53,497.67 912.22,485.27 L910.36,485.27 C905.4,488.68 900.75,490.54 895.79,491.78 C887.11,494.26 877.81,494.57 866.96,494.57 C820.46,494.57 791.01,465.12 791.01,420.48 C791.01,376.77 823.56,347.94 872.85,347.94 C881.84,347.94 890.52,348.87 896.72,350.42 C901.99,351.97 906.02,353.83 909.43,356.93 L911.6,356.93 C912.53,330.89 912.84,317.56 913.77,301.13 C908.19,299.89 900.75,298.65 893.93,298.03 C886.8,297.41 880.91,297.1 872.54,297.1 C781.4,297.1 728.7,350.73 728.7,420.48 L728.7,420.79 Z"></path>
        </g>
    </g>
</svg>
