<svg viewBox="0 0 1291 385" version="1.1" xmlns="http://www.w3.org/2000/svg" xmlns:xlink="http://www.w3.org/1999/xlink" xmlns:sketch="http://www.bohemiancoding.com/sketch/ns">
    <g id="Marca" stroke="none" stroke-width="1" fill="none" fill-rule="evenodd" sketch:type="MSPage">
        <g id="logo-horizontal" sketch:type="MSArtboardGroup" fill="#036E9F">
            <ellipse id="Oval-1" sketch:type="MSShapeGroup" cx="137" cy="249.493243" rx="39.072" ry="39.0810811"></ellipse>
            <ellipse id="Oval-1-Copy" sketch:type="MSShapeGroup" cx="245" cy="249.493243" rx="39.072" ry="39.0810811"></ellipse>
            <path d="M245,177.844595 C267.477989,177.844595 285.7,159.618349 285.7,137.135135 C285.7,114.651921 267.477989,96.4256757 245,96.4256757 C222.522011,96.4256757 204.3,114.651921 204.3,137.135135 C204.3,159.618349 222.522011,177.844595 245,177.844595 L245,177.844595 L245,177.844595 Z M245,166.571206 C228.746685,166.571206 215.570769,153.392228 215.570769,137.135135 C215.570769,120.878042 228.746685,107.699064 245,107.699064 C261.253315,107.699064 274.429231,120.878042 274.429231,137.135135 C274.429231,153.392228 261.253315,166.571206 245,166.571206 L245,166.571206 L245,166.571206 Z" id="Shape" sketch:type="MSShapeGroup"></path>
            <path d="M137,177.844595 C159.477989,177.844595 177.7,159.618349 177.7,137.135135 C177.7,114.651921 159.477989,96.4256757 137,96.4256757 C114.522011,96.4256757 96.3,114.651921 96.3,137.135135 C96.3,159.618349 114.522011,177.844595 137,177.844595 L137,177.844595 L137,177.844595 Z M137,166.571206 C120.746685,166.571206 107.57077,153.392228 107.57077,137.135135 C107.57077,120.878042 120.746685,107.699064 137,107.699064 C153.253316,107.699064 166.429231,120.878042 166.429231,137.135135 C166.429231,153.392228 153.253316,166.571206 137,166.571206 L137,166.571206 L137,166.571206 Z" id="Shape-Copy" sketch:type="MSShapeGroup"></path>
            <path d="M514.06,247.99 C514.06,221.02 501.66,203.04 481.51,185.06 C468.49,173.59 457.95,165.53 452.37,159.64 C446.48,153.75 443.07,148.48 443.07,140.42 C443.07,127.4 454.23,119.34 470.66,119.34 C477.48,119.34 482.44,120.27 487.09,121.82 C491.12,123.37 496.08,126.16 498.56,128.95 L500.73,128.95 C501.35,102.6 501.35,93.92 502.28,74.39 C493.29,71.6 477.79,69.74 466.01,69.74 C408.66,69.74 382.93,103.84 382.93,141.35 C382.93,167.39 395.95,186.61 412.38,201.18 C419.2,207.38 427.57,214.82 436.25,221.64 C446.17,229.7 452.06,237.14 452.06,245.82 C452.06,260.08 441.21,266.9 425.71,266.9 C415.17,266.9 405.87,265.35 398.43,262.25 C393.78,260.08 389.44,257.29 385.72,253.26 L383.86,253.26 C382.93,281.16 382.62,290.15 382,308.13 C393.78,313.4 413.93,316.81 431.91,316.81 C479.96,316.81 514.06,288.91 514.06,248.3 L514.06,247.99 Z M760.51,172.66 C760.51,88.34 760.739703,74.81 764.459703,72.95 L764.459703,71.09 L735.629703,71.09 L703.389703,71.09 L703.389703,72.95 C707.729703,74.81 707.5,88.34 707.5,167.39 C707.5,177 707.81,187.23 708.12,202.73 L707.19,202.73 C690.76,185.68 677.12,172.66 662.86,159.33 C642.09,140.11 611.4,113.14 559.63,69.12 L551.88,69.12 L551.88,205.52 C551.88,296.04 551.88,309.37 547.85,311.23 L547.85,313.09 L576.99,313.09 L608.92,313.09 L608.92,311.23 C604.89,309.06 604.89,296.04 604.89,212.03 C604.89,204.59 604.89,196.53 604.27,183.82 C624.11,203.35 636.2,214.82 651.7,228.77 C672.47,247.68 702.85,274.03 752.76,316.19 L760.51,316.19 L760.51,172.66 Z M867.77,172.66 C867.77,88.34 868.123968,77.29 871.843968,73.26 L871.843968,71.09 L838.983968,71.09 L806.123968,71.09 L806.123968,73.57 C810.153968,77.29 810.11,88.34 810.11,172.66 L810.11,205.52 C810.11,296.04 810.11,306.58 805.77,310.92 L805.77,313.09 L840.18,313.09 L872.42,313.09 L872.42,311.23 C867.77,306.27 867.77,296.04 867.77,205.52 L867.77,172.66 Z M975.96,172.66 C975.96,88.34 976.332423,77.29 980.052423,73.26 L980.052423,71.09 L947.192423,71.09 L914.332423,71.09 L914.332423,73.57 C918.362423,77.29 918.3,88.34 918.3,172.66 L918.3,205.52 C918.3,296.04 918.3,306.58 913.96,310.92 L913.96,313.09 L948.37,313.09 L980.61,313.09 L980.61,311.23 C975.96,306.27 975.96,296.04 975.96,205.52 L975.96,172.66 Z M1010.06,191.88 C1010.06,268.45 1067.1,316.81 1143.98,316.81 C1154.52,316.81 1162.58,316.5 1174.67,314.95 C1181.49,313.71 1190.79,311.85 1195.13,310.61 C1194.82,298.52 1193.89,268.76 1193.58,256.36 L1191.72,256.36 C1186.76,259.77 1182.11,261.63 1177.15,262.87 C1168.47,265.35 1159.17,265.66 1148.32,265.66 C1101.82,265.66 1072.37,236.21 1072.37,191.57 C1072.37,147.86 1104.92,119.03 1154.21,119.03 C1163.2,119.03 1171.88,119.96 1178.08,121.51 C1183.35,123.06 1187.38,124.92 1190.79,128.02 L1192.96,128.02 C1193.89,101.98 1194.2,88.65 1195.13,72.22 C1189.55,70.98 1182.11,69.74 1175.29,69.12 C1168.16,68.5 1162.27,68.19 1153.9,68.19 C1062.76,68.19 1010.06,121.82 1010.06,191.57 L1010.06,191.88 Z" id="Ouline" sketch:type="MSShapeGroup"></path>
        </g>
    </g>
</svg>
